<?xml version="1.0" standalone="no"?>
<!DOCTYPE svg PUBLIC "-//W3C//DTD SVG 20010904//EN"
 "http://www.w3.org/TR/2001/REC-SVG-20010904/DTD/svg10.dtd">
<svg version="1.0" xmlns="http://www.w3.org/2000/svg"
 width="1024.000000pt" height="1024.000000pt" viewBox="0 0 1024.000000 1024.000000"
 preserveAspectRatio="xMidYMid meet">
<metadata>
Created by potrace 1.11, written by Peter Selinger 2001-2013
</metadata>
<g transform="translate(0.000000,1024.000000) scale(0.100000,-0.100000)"
fill="#000000" stroke="none">
<path d="M4767 9885 c-1 -2 -38 -5 -82 -9 -120 -10 -142 -14 -245 -41 -113
-29 -177 -53 -288 -107 -78 -38 -210 -122 -271 -172 -59 -49 -192 -186 -239
-246 -132 -171 -241 -410 -276 -605 -3 -16 -9 -43 -12 -60 -23 -122 -23 -320
2 -465 8 -48 17 -187 17 -265 0 -91 -11 -263 -17 -274 -2 -3 -6 -28 -10 -56
-23 -190 -125 -475 -242 -674 -104 -178 -273 -378 -434 -512 -111 -93 -256
-184 -445 -279 -106 -53 -230 -123 -276 -155 -111 -77 -278 -248 -357 -363
-110 -160 -213 -405 -236 -562 -4 -25 -11 -70 -16 -100 -16 -98 -5 -353 20
-470 109 -510 472 -926 955 -1093 158 -55 292 -78 462 -81 577 -11 1103 317
1356 845 20 42 39 90 43 105 4 16 10 34 14 39 9 12 51 167 57 210 2 17 7 41
10 55 12 57 15 314 4 387 -37 265 -34 481 10 709 87 452 339 867 702 1157 143
115 240 173 472 283 258 121 499 347 643 602 53 93 126 276 147 367 66 286 51
589 -41 846 -92 257 -253 485 -463 654 -123 100 -228 159 -436 246 -66 27
-251 67 -355 75 -85 7 -170 11 -173 9z m213 -711 c295 -64 524 -296 595 -604
24 -104 15 -284 -20 -390 -95 -294 -320 -488 -630 -545 -61 -11 -214 -5 -286
11 -92 20 -225 81 -298 136 -457 345 -410 1036 89 1316 73 41 199 82 275 89
33 3 61 7 63 8 8 7 146 -7 212 -21z m-2028 -3641 c239 -49 443 -205 552 -422
146 -292 87 -658 -144 -892 -160 -163 -363 -243 -590 -235 -304 12 -566 191
-688 471 -16 39 -33 86 -38 105 -4 19 -8 37 -9 40 -48 209 5 456 138 635 32
43 157 165 169 165 3 0 13 6 21 14 37 38 208 108 297 122 19 3 36 7 38 9 10 9
193 1 254 -12z"/>
<path d="M7185 6929 c-363 -62 -680 -248 -912 -534 -142 -176 -265 -445 -298
-655 -3 -19 -8 -51 -11 -70 -10 -63 -12 -283 -4 -345 5 -33 12 -85 16 -115 20
-139 9 -459 -21 -610 -3 -14 -7 -35 -9 -47 -22 -112 -99 -328 -164 -458 -36
-74 -121 -215 -154 -260 -159 -213 -319 -367 -518 -499 -47 -31 -170 -99 -273
-151 -229 -114 -318 -176 -462 -320 -661 -661 -543 -1756 246 -2271 227 -148
477 -223 764 -229 210 -5 365 20 546 88 72 27 251 114 259 127 3 4 16 13 30
20 54 28 191 143 269 226 168 179 293 406 350 635 37 150 45 213 45 374 0 105
-4 157 -23 290 -24 164 -3 482 44 675 82 339 267 671 514 917 173 175 318 275
579 405 221 109 334 187 467 322 141 142 239 287 310 454 38 90 91 273 100
342 3 25 7 56 10 70 7 32 7 284 1 328 -3 18 -8 52 -11 75 -9 64 -42 188 -71
269 -150 418 -492 749 -922 894 -74 24 -99 31 -222 55 -102 20 -353 19 -475
-2z m404 -682 c199 -50 371 -168 480 -327 203 -297 177 -696 -64 -966 -247
-277 -660 -340 -982 -150 -176 104 -304 277 -359 483 -19 73 -22 107 -20 203
4 122 7 146 33 225 69 216 237 399 448 488 96 41 186 56 315 53 69 -2 136 -6
149 -9z m-2043 -3642 c76 -12 218 -67 287 -111 370 -237 477 -715 242 -1085
-113 -178 -308 -309 -519 -350 -88 -17 -229 -12 -321 11 -146 37 -266 104
-372 208 -149 148 -234 363 -227 573 1 52 5 103 7 114 23 96 34 129 62 192
113 246 351 423 610 450 28 3 51 7 53 8 5 4 138 -3 178 -10z"/>
</g>
</svg>
