<?xml version="1.0" standalone="no"?>
<!DOCTYPE svg PUBLIC "-//W3C//DTD SVG 20010904//EN"
 "http://www.w3.org/TR/2001/REC-SVG-20010904/DTD/svg10.dtd">
<svg version="1.0" xmlns="http://www.w3.org/2000/svg"
 width="260.000000pt" height="260.000000pt" viewBox="0 0 260.000000 260.000000"
 preserveAspectRatio="xMidYMid meet">
<metadata>
Created by potrace 1.11, written by Peter Selinger 2001-2013
</metadata>
<g transform="translate(0.000000,260.000000) scale(0.100000,-0.100000)"
fill="#000000" stroke="none">
<path d="M1178 2545 c-2 -2 -23 -6 -48 -9 -385 -52 -734 -291 -923 -634 -23
-42 -42 -79 -43 -82 0 -3 -6 -18 -13 -35 -68 -158 -94 -291 -95 -480 -1 -164
9 -232 63 -411 18 -63 93 -211 149 -294 70 -106 222 -259 326 -329 207 -140
427 -210 676 -216 227 -6 410 36 605 137 220 115 411 304 528 526 46 88 112
267 122 332 20 133 23 179 20 290 -3 117 -7 148 -21 210 -3 14 -7 32 -9 41 -8
42 -36 123 -69 203 -77 186 -247 398 -417 518 -91 66 -200 125 -274 149 -22 7
-44 16 -50 20 -17 11 -107 33 -205 51 -48 8 -315 19 -322 13z"/>
</g>
</svg>
