<?xml version="1.0" standalone="no"?>
<!DOCTYPE svg PUBLIC "-//W3C//DTD SVG 20010904//EN"
 "http://www.w3.org/TR/2001/REC-SVG-20010904/DTD/svg10.dtd">
<svg version="1.0" xmlns="http://www.w3.org/2000/svg"
 width="1024.000000pt" height="1024.000000pt" viewBox="0 0 1024.000000 1024.000000"
 preserveAspectRatio="xMidYMid meet">
<metadata>
Created by potrace 1.11, written by Peter Selinger 2001-2013
</metadata>
<g transform="translate(0.000000,1024.000000) scale(0.100000,-0.100000)"
fill="#000000" stroke="none">
<path d="M5415 9969 c-835 -53 -1459 -792 -1371 -1624 4 -38 9 -72 11 -75 8
-13 18 -186 17 -299 -1 -148 -6 -194 -37 -356 -26 -139 -56 -236 -115 -379
-94 -227 -233 -435 -406 -611 -187 -189 -339 -295 -614 -428 -212 -102 -342
-195 -479 -344 -262 -285 -395 -638 -386 -1028 3 -173 21 -281 69 -429 106
-322 307 -582 606 -783 117 -79 368 -178 511 -203 242 -42 462 -32 689 31 80
22 98 30 230 91 187 87 410 269 538 440 43 57 152 238 152 253 0 2 11 28 24
57 31 69 51 128 71 208 19 71 20 77 34 165 9 61 8 373 -2 411 -26 99 -27 437
-1 590 99 595 429 1086 931 1386 87 53 111 65 248 129 85 40 180 97 260 157
95 71 254 239 324 340 93 138 189 350 216 482 36 169 39 200 39 350 0 137 -10
248 -30 312 -3 10 -7 30 -10 45 -8 42 -63 200 -92 263 -35 75 -106 193 -156
260 -37 49 -57 73 -123 145 -18 20 -92 87 -148 135 -42 36 -179 122 -250 157
-88 44 -239 99 -325 117 -111 23 -128 26 -215 32 -44 3 -84 6 -90 8 -5 1 -59
-1 -120 -5z m245 -699 c240 -48 459 -222 560 -444 49 -108 70 -214 66 -341 -5
-130 -9 -155 -46 -257 -137 -375 -531 -581 -930 -486 -68 16 -207 83 -269 130
-251 188 -362 490 -297 813 16 79 81 215 139 290 121 157 314 273 497 300 25
4 46 8 47 9 8 7 178 -3 233 -14z m-1970 -3654 c490 -131 735 -663 510 -1111
-108 -216 -306 -367 -551 -421 -13 -3 -68 -7 -121 -10 -380 -17 -714 246 -794
624 -89 423 187 837 616 926 86 18 258 14 340 -8z"/>
<path d="M6495 6879 c-22 -5 -56 -10 -76 -13 -199 -29 -494 -164 -663 -304
-86 -72 -231 -231 -290 -319 -136 -205 -210 -404 -245 -663 -9 -66 -7 -315 3
-360 28 -125 28 -526 1 -620 -3 -8 -7 -29 -9 -45 -25 -196 -161 -532 -296
-732 -101 -150 -274 -343 -376 -419 -21 -16 -49 -38 -62 -49 -65 -55 -214
-145 -367 -220 -228 -113 -336 -186 -471 -320 -244 -242 -383 -526 -430 -880
-11 -82 -6 -294 10 -390 33 -200 62 -282 184 -520 61 -118 234 -314 369 -418
139 -107 316 -198 478 -245 148 -44 235 -56 405 -56 160 -1 200 2 305 23 338
67 652 259 865 530 139 177 241 394 286 611 22 106 28 168 28 300 0 111 -4
162 -21 280 -10 70 -10 352 -1 448 27 259 135 574 275 802 118 191 282 376
453 511 140 110 220 159 403 249 217 106 328 181 457 310 114 114 125 126 186
215 128 185 213 412 249 664 9 60 9 263 0 331 -71 576 -462 1058 -1003 1235
-152 50 -265 68 -442 70 -91 1 -183 -2 -205 -6z m395 -705 c123 -35 248 -107
330 -188 69 -69 84 -87 125 -150 121 -189 153 -441 83 -656 -127 -391 -531
-621 -924 -524 -300 73 -522 301 -591 609 -4 17 -7 86 -7 155 -1 144 21 237
81 355 123 243 370 404 653 427 54 5 189 -11 250 -28z m-2021 -3644 c287 -73
507 -301 574 -593 19 -82 19 -248 0 -330 -108 -467 -587 -732 -1033 -571 -270
97 -463 333 -508 620 -11 70 -7 226 7 272 5 17 8 32 6 32 -6 0 43 126 66 172
58 113 178 244 283 307 182 109 404 143 605 91z"/>
</g>
</svg>
